<svg width="16" height="10" viewBox="0 0 16 10" fill="none" xmlns="http://www.w3.org/2000/svg">
<g clip-path="url(#clip0)">
<path d="M15.5054 0.194054C15.4445 0.132827 15.3721 0.0842343 15.2924 0.0510788C15.2127 0.0179233 15.1272 0.000854492 15.0409 0.000854492C14.9545 0.000854492 14.8691 0.0179233 14.7893 0.0510788C14.7096 0.0842343 14.6373 0.132827 14.5764 0.194054L7.84938 7.57606L1.12138 0.194054C1.06051 0.132827 0.988137 0.0842343 0.908421 0.0510788C0.828704 0.0179233 0.74322 0.000854492 0.656883 0.000854492C0.570547 0.000854492 0.485062 0.0179233 0.405346 0.0510788C0.32563 0.0842343 0.253255 0.132827 0.192383 0.194054C0.0691514 0.31824 0 0.486096 0 0.661049C0 0.836001 0.0691514 1.00386 0.192383 1.12804L7.35138 8.98306C7.41666 9.04795 7.49502 9.09818 7.58123 9.13042C7.66745 9.16267 7.75954 9.17618 7.85138 9.17005C7.94323 9.17625 8.03534 9.16276 8.12157 9.13052C8.20779 9.09827 8.28614 9.048 8.35138 8.98306L15.5114 1.12705C15.6338 1.00225 15.7018 0.834107 15.7007 0.659317C15.6996 0.484528 15.6294 0.317276 15.5054 0.194054V0.194054Z" fill="white"/>
</g>
<defs>
<clipPath id="clip0">
<rect width="15.698" height="9.17" fill="white"/>
</clipPath>
</defs>
</svg>
