<svg width="27" height="33" viewBox="0 0 27 33" fill="none" xmlns="http://www.w3.org/2000/svg">
<g clip-path="url(#clip0)">
<path d="M13.035 32.634C12.9024 32.634 12.7752 32.5813 12.6814 32.4876C12.5877 32.3938 12.535 32.2666 12.535 32.134V0.5C12.535 0.367392 12.5877 0.240215 12.6814 0.146447C12.7752 0.0526784 12.9024 0 13.035 0C13.1676 0 13.2948 0.0526784 13.3886 0.146447C13.4823 0.240215 13.535 0.367392 13.535 0.5V32.134C13.535 32.2666 13.4823 32.3938 13.3886 32.4876C13.2948 32.5813 13.1676 32.634 13.035 32.634Z" fill="#FFDA00"/>
<path d="M13.033 32.634C12.9673 32.6341 12.9022 32.6213 12.8415 32.5962C12.7807 32.5712 12.7255 32.5344 12.679 32.488L0.146002 19.951C0.0549226 19.8567 0.00452544 19.7304 0.00566465 19.5993C0.00680386 19.4682 0.0593882 19.3428 0.152092 19.2501C0.244796 19.1574 0.370203 19.1048 0.501301 19.1037C0.632399 19.1025 0.758701 19.1529 0.853002 19.244L13.032 31.427L25.218 19.244C25.2641 19.1962 25.3193 19.1582 25.3803 19.1319C25.4413 19.1057 25.5069 19.092 25.5733 19.0914C25.6397 19.0908 25.7055 19.1034 25.767 19.1286C25.8284 19.1537 25.8843 19.1909 25.9312 19.2378C25.9781 19.2847 26.0153 19.3406 26.0404 19.402C26.0656 19.4635 26.0782 19.5293 26.0776 19.5957C26.0771 19.6621 26.0633 19.7277 26.0371 19.7887C26.0108 19.8497 25.9728 19.9049 25.925 19.951L13.386 32.487C13.2925 32.5808 13.1655 32.6337 13.033 32.634V32.634Z" fill="#FFDA00"/>
</g>
<defs>
<clipPath id="clip0">
<rect width="26.07" height="32.634" fill="white"/>
</clipPath>
</defs>
</svg>
