<svg width="27" height="33" viewBox="0 0 27 33" fill="none" xmlns="http://www.w3.org/2000/svg">
<g clip-path="url(#clip0)">
<path d="M13.0349 32.634C12.9023 32.634 12.7751 32.5813 12.6814 32.4876C12.5876 32.3938 12.5349 32.2666 12.5349 32.134V0.5C12.5349 0.367392 12.5876 0.240215 12.6814 0.146447C12.7751 0.0526784 12.9023 0 13.0349 0C13.1675 0 13.2947 0.0526784 13.3885 0.146447C13.4822 0.240215 13.5349 0.367392 13.5349 0.5V32.134C13.5349 32.2666 13.4822 32.3938 13.3885 32.4876C13.2947 32.5813 13.1675 32.634 13.0349 32.634Z" fill="#333333"/>
<path d="M25.57 13.536C25.5043 13.5361 25.4392 13.5233 25.3784 13.4982C25.3177 13.4732 25.2625 13.4364 25.216 13.39L13.037 1.207L0.852971 13.39C0.75867 13.4811 0.632369 13.5315 0.501271 13.5303C0.370172 13.5292 0.244766 13.4766 0.152062 13.3839C0.0593577 13.2912 0.00677335 13.1658 0.00563414 13.0347C0.00449493 12.9036 0.0548921 12.7773 0.145971 12.683L12.684 0.146001C12.7777 0.0525318 12.9046 2.89165e-05 13.037 7.97493e-07V7.97493e-07C13.1027 -0.00011655 13.1678 0.0127175 13.2285 0.0377692C13.2892 0.0628209 13.3445 0.099599 13.391 0.146001L25.924 12.682C25.9941 12.7519 26.0418 12.8411 26.0612 12.9382C26.0806 13.0353 26.0707 13.136 26.0328 13.2275C25.9948 13.3189 25.9306 13.3971 25.8482 13.452C25.7658 13.507 25.669 13.5362 25.57 13.536Z" fill="#333333"/>
</g>
<defs>
<clipPath id="clip0">
<rect width="26.071" height="32.634" fill="white"/>
</clipPath>
</defs>
</svg>
